<mxfile host="app.diagrams.net" agent="Mozilla/5.0 (X11; Linux x86_64) AppleWebKit/537.36 (KHTML, like Gecko) Chrome/137.0.0.0 Safari/537.36" version="28.0.4">
  <diagram name="Page-1" id="S321o-_GPvxvVUexLHws">
    <mxGraphModel dx="1904" dy="588" grid="1" gridSize="10" guides="1" tooltips="1" connect="1" arrows="1" fold="1" page="1" pageScale="1" pageWidth="850" pageHeight="1100" math="0" shadow="0">
      <root>
        <mxCell id="0" />
        <mxCell id="1" parent="0" />
        <mxCell id="IVInele2fxkTgnkiEGMV-1" value="&lt;div&gt;username:&lt;br&gt;password:&lt;/div&gt;" style="rounded=0;whiteSpace=wrap;html=1;" vertex="1" parent="1">
          <mxGeometry x="370" y="170" width="120" height="60" as="geometry" />
        </mxCell>
        <mxCell id="IVInele2fxkTgnkiEGMV-2" value="admin" style="rounded=0;whiteSpace=wrap;html=1;" vertex="1" parent="1">
          <mxGeometry y="400" width="120" height="60" as="geometry" />
        </mxCell>
        <mxCell id="IVInele2fxkTgnkiEGMV-3" value="operator" style="rounded=0;whiteSpace=wrap;html=1;" vertex="1" parent="1">
          <mxGeometry x="370" y="400" width="120" height="60" as="geometry" />
        </mxCell>
        <mxCell id="IVInele2fxkTgnkiEGMV-4" value="viewer" style="rounded=0;whiteSpace=wrap;html=1;" vertex="1" parent="1">
          <mxGeometry x="640" y="400" width="120" height="60" as="geometry" />
        </mxCell>
        <mxCell id="IVInele2fxkTgnkiEGMV-7" value="" style="endArrow=classic;html=1;rounded=0;exitX=0.25;exitY=1;exitDx=0;exitDy=0;entryX=0.75;entryY=0;entryDx=0;entryDy=0;" edge="1" parent="1" source="IVInele2fxkTgnkiEGMV-1" target="IVInele2fxkTgnkiEGMV-2">
          <mxGeometry width="50" height="50" relative="1" as="geometry">
            <mxPoint x="430" y="400" as="sourcePoint" />
            <mxPoint x="480" y="350" as="targetPoint" />
          </mxGeometry>
        </mxCell>
        <mxCell id="IVInele2fxkTgnkiEGMV-9" value="" style="endArrow=classic;html=1;rounded=0;exitX=0.75;exitY=1;exitDx=0;exitDy=0;entryX=0.25;entryY=0;entryDx=0;entryDy=0;" edge="1" parent="1" source="IVInele2fxkTgnkiEGMV-1" target="IVInele2fxkTgnkiEGMV-4">
          <mxGeometry width="50" height="50" relative="1" as="geometry">
            <mxPoint x="430" y="400" as="sourcePoint" />
            <mxPoint x="480" y="350" as="targetPoint" />
          </mxGeometry>
        </mxCell>
        <mxCell id="IVInele2fxkTgnkiEGMV-10" value="" style="endArrow=classic;html=1;rounded=0;exitX=0;exitY=1;exitDx=0;exitDy=0;entryX=0.5;entryY=0;entryDx=0;entryDy=0;" edge="1" parent="1" source="IVInele2fxkTgnkiEGMV-2" target="IVInele2fxkTgnkiEGMV-11">
          <mxGeometry width="50" height="50" relative="1" as="geometry">
            <mxPoint x="70" y="550" as="sourcePoint" />
            <mxPoint x="120" y="500" as="targetPoint" />
          </mxGeometry>
        </mxCell>
        <mxCell id="IVInele2fxkTgnkiEGMV-11" value="config" style="rounded=0;whiteSpace=wrap;html=1;" vertex="1" parent="1">
          <mxGeometry x="-230" y="540" width="120" height="60" as="geometry" />
        </mxCell>
        <mxCell id="IVInele2fxkTgnkiEGMV-12" value="show" style="rounded=0;whiteSpace=wrap;html=1;" vertex="1" parent="1">
          <mxGeometry x="-230" y="690" width="120" height="60" as="geometry" />
        </mxCell>
        <mxCell id="IVInele2fxkTgnkiEGMV-13" value="" style="endArrow=classic;html=1;rounded=0;exitX=0.5;exitY=1;exitDx=0;exitDy=0;entryX=0.5;entryY=0;entryDx=0;entryDy=0;" edge="1" parent="1" source="IVInele2fxkTgnkiEGMV-11" target="IVInele2fxkTgnkiEGMV-12">
          <mxGeometry width="50" height="50" relative="1" as="geometry">
            <mxPoint x="-340" y="670" as="sourcePoint" />
            <mxPoint x="-290" y="620" as="targetPoint" />
          </mxGeometry>
        </mxCell>
        <mxCell id="IVInele2fxkTgnkiEGMV-19" value="enter config mode" style="edgeLabel;html=1;align=center;verticalAlign=middle;resizable=0;points=[];" vertex="1" connectable="0" parent="IVInele2fxkTgnkiEGMV-13">
          <mxGeometry x="-0.1179" y="1" relative="1" as="geometry">
            <mxPoint as="offset" />
          </mxGeometry>
        </mxCell>
        <mxCell id="IVInele2fxkTgnkiEGMV-14" value="choose config_file" style="rounded=0;whiteSpace=wrap;html=1;" vertex="1" parent="1">
          <mxGeometry x="-230" y="850" width="120" height="60" as="geometry" />
        </mxCell>
        <mxCell id="IVInele2fxkTgnkiEGMV-15" value="" style="endArrow=classic;html=1;rounded=0;exitX=0.5;exitY=1;exitDx=0;exitDy=0;entryX=0.5;entryY=0;entryDx=0;entryDy=0;" edge="1" parent="1" source="IVInele2fxkTgnkiEGMV-12" target="IVInele2fxkTgnkiEGMV-14">
          <mxGeometry width="50" height="50" relative="1" as="geometry">
            <mxPoint x="-550" y="850" as="sourcePoint" />
            <mxPoint x="-500" y="800" as="targetPoint" />
          </mxGeometry>
        </mxCell>
        <mxCell id="IVInele2fxkTgnkiEGMV-22" value="print possible config files" style="edgeLabel;html=1;align=center;verticalAlign=middle;resizable=0;points=[];" vertex="1" connectable="0" parent="IVInele2fxkTgnkiEGMV-15">
          <mxGeometry x="0.0092" y="-2" relative="1" as="geometry">
            <mxPoint as="offset" />
          </mxGeometry>
        </mxCell>
        <mxCell id="IVInele2fxkTgnkiEGMV-16" value="connect to websocket" style="rounded=0;whiteSpace=wrap;html=1;" vertex="1" parent="1">
          <mxGeometry x="370" y="20" width="120" height="60" as="geometry" />
        </mxCell>
        <mxCell id="IVInele2fxkTgnkiEGMV-17" value="" style="endArrow=classic;html=1;rounded=0;exitX=0.5;exitY=1;exitDx=0;exitDy=0;entryX=0.5;entryY=0;entryDx=0;entryDy=0;" edge="1" parent="1" source="IVInele2fxkTgnkiEGMV-16" target="IVInele2fxkTgnkiEGMV-1">
          <mxGeometry width="50" height="50" relative="1" as="geometry">
            <mxPoint x="150" y="180" as="sourcePoint" />
            <mxPoint x="490" y="140" as="targetPoint" />
          </mxGeometry>
        </mxCell>
        <mxCell id="IVInele2fxkTgnkiEGMV-18" value="" style="endArrow=classic;html=1;rounded=0;exitX=0.5;exitY=1;exitDx=0;exitDy=0;entryX=0.5;entryY=0;entryDx=0;entryDy=0;" edge="1" parent="1" source="IVInele2fxkTgnkiEGMV-1" target="IVInele2fxkTgnkiEGMV-3">
          <mxGeometry width="50" height="50" relative="1" as="geometry">
            <mxPoint x="220" y="200" as="sourcePoint" />
            <mxPoint x="270" y="150" as="targetPoint" />
          </mxGeometry>
        </mxCell>
        <mxCell id="IVInele2fxkTgnkiEGMV-28" style="edgeStyle=orthogonalEdgeStyle;rounded=0;orthogonalLoop=1;jettySize=auto;html=1;exitX=0;exitY=0.5;exitDx=0;exitDy=0;entryX=0;entryY=0.5;entryDx=0;entryDy=0;" edge="1" parent="1" source="IVInele2fxkTgnkiEGMV-20" target="IVInele2fxkTgnkiEGMV-14">
          <mxGeometry relative="1" as="geometry">
            <Array as="points">
              <mxPoint x="-300" y="1050" />
              <mxPoint x="-300" y="880" />
            </Array>
          </mxGeometry>
        </mxCell>
        <mxCell id="IVInele2fxkTgnkiEGMV-29" value="Text" style="edgeLabel;html=1;align=center;verticalAlign=middle;resizable=0;points=[];" vertex="1" connectable="0" parent="IVInele2fxkTgnkiEGMV-28">
          <mxGeometry x="-0.0104" y="-1" relative="1" as="geometry">
            <mxPoint as="offset" />
          </mxGeometry>
        </mxCell>
        <mxCell id="IVInele2fxkTgnkiEGMV-30" value="back" style="edgeLabel;html=1;align=center;verticalAlign=middle;resizable=0;points=[];" vertex="1" connectable="0" parent="IVInele2fxkTgnkiEGMV-28">
          <mxGeometry x="-0.0203" y="-1" relative="1" as="geometry">
            <mxPoint as="offset" />
          </mxGeometry>
        </mxCell>
        <mxCell id="IVInele2fxkTgnkiEGMV-20" value="choose section" style="rounded=0;whiteSpace=wrap;html=1;" vertex="1" parent="1">
          <mxGeometry x="-230" y="1020" width="120" height="60" as="geometry" />
        </mxCell>
        <mxCell id="IVInele2fxkTgnkiEGMV-21" value="" style="endArrow=classic;html=1;rounded=0;exitX=0.5;exitY=1;exitDx=0;exitDy=0;entryX=0.5;entryY=0;entryDx=0;entryDy=0;" edge="1" parent="1" source="IVInele2fxkTgnkiEGMV-14" target="IVInele2fxkTgnkiEGMV-20">
          <mxGeometry width="50" height="50" relative="1" as="geometry">
            <mxPoint x="-340" y="1000" as="sourcePoint" />
            <mxPoint x="-290" y="950" as="targetPoint" />
          </mxGeometry>
        </mxCell>
        <mxCell id="IVInele2fxkTgnkiEGMV-24" value="print possible sections" style="edgeLabel;html=1;align=center;verticalAlign=middle;resizable=0;points=[];" vertex="1" connectable="0" parent="1">
          <mxGeometry x="-170" y="970" as="geometry" />
        </mxCell>
        <mxCell id="IVInele2fxkTgnkiEGMV-25" value="edit &amp;lt;param_num&amp;gt;" style="rounded=0;whiteSpace=wrap;html=1;" vertex="1" parent="1">
          <mxGeometry x="-230" y="1190" width="120" height="60" as="geometry" />
        </mxCell>
        <mxCell id="IVInele2fxkTgnkiEGMV-26" value="" style="endArrow=classic;html=1;rounded=0;entryX=0.5;entryY=0;entryDx=0;entryDy=0;exitX=0.5;exitY=1;exitDx=0;exitDy=0;" edge="1" parent="1" source="IVInele2fxkTgnkiEGMV-20" target="IVInele2fxkTgnkiEGMV-25">
          <mxGeometry width="50" height="50" relative="1" as="geometry">
            <mxPoint x="-160" y="1110" as="sourcePoint" />
            <mxPoint x="-300" y="1100" as="targetPoint" />
          </mxGeometry>
        </mxCell>
      </root>
    </mxGraphModel>
  </diagram>
</mxfile>
